<mxfile host="app.diagrams.net" agent="Mozilla/5.0 (Windows NT 10.0; Win64; x64) AppleWebKit/537.36 (KHTML, like Gecko) Chrome/135.0.0.0 Safari/537.36" version="26.2.14">
  <diagram name="Page-1" id="JHkMMfTYENx-ZfjOI_LQ">
    <mxGraphModel grid="1" page="1" gridSize="10" guides="1" tooltips="1" connect="1" arrows="1" fold="1" pageScale="1" pageWidth="827" pageHeight="1169" math="0" shadow="0">
      <root>
        <mxCell id="0" />
        <mxCell id="1" parent="0" />
        <mxCell id="4P7MWwu41EraKO95r6xE-1" value="" style="rounded=0;whiteSpace=wrap;html=1;" vertex="1" parent="1">
          <mxGeometry x="70" y="70" width="30" height="90" as="geometry" />
        </mxCell>
        <mxCell id="4P7MWwu41EraKO95r6xE-3" value="Stack A" style="text;html=1;align=center;verticalAlign=middle;whiteSpace=wrap;rounded=0;" vertex="1" parent="1">
          <mxGeometry x="60" y="40" width="60" height="30" as="geometry" />
        </mxCell>
        <mxCell id="4P7MWwu41EraKO95r6xE-4" value="Stack B" style="text;html=1;align=center;verticalAlign=middle;whiteSpace=wrap;rounded=0;" vertex="1" parent="1">
          <mxGeometry x="120" y="39" width="60" height="30" as="geometry" />
        </mxCell>
        <mxCell id="4P7MWwu41EraKO95r6xE-9" value="3&lt;div&gt;2&lt;/div&gt;&lt;div&gt;5&lt;/div&gt;&lt;div&gt;1&lt;/div&gt;&lt;div&gt;4&lt;/div&gt;&lt;div&gt;&lt;br&gt;&lt;/div&gt;" style="text;html=1;align=center;verticalAlign=middle;whiteSpace=wrap;rounded=0;" vertex="1" parent="1">
          <mxGeometry x="71" y="82" width="30" height="76" as="geometry" />
        </mxCell>
        <mxCell id="4P7MWwu41EraKO95r6xE-11" value="" style="rounded=0;whiteSpace=wrap;html=1;" vertex="1" parent="1">
          <mxGeometry x="131" y="70" width="30" height="90" as="geometry" />
        </mxCell>
        <mxCell id="4P7MWwu41EraKO95r6xE-12" value="" style="shape=flexArrow;endArrow=classic;html=1;rounded=0;fillColor=#1ba1e2;strokeColor=#006EAF;" edge="1" parent="1">
          <mxGeometry width="50" height="50" relative="1" as="geometry">
            <mxPoint x="168" y="114.5" as="sourcePoint" />
            <mxPoint x="205" y="115" as="targetPoint" />
          </mxGeometry>
        </mxCell>
        <mxCell id="4P7MWwu41EraKO95r6xE-13" value="pb" style="text;html=1;align=center;verticalAlign=middle;whiteSpace=wrap;rounded=0;rotation=30;" vertex="1" parent="1">
          <mxGeometry x="90" y="70" width="60" height="30" as="geometry" />
        </mxCell>
        <mxCell id="4P7MWwu41EraKO95r6xE-22" value="" style="rounded=0;whiteSpace=wrap;html=1;" vertex="1" parent="1">
          <mxGeometry x="212" y="71" width="30" height="90" as="geometry" />
        </mxCell>
        <mxCell id="4P7MWwu41EraKO95r6xE-23" value="Stack A" style="text;html=1;align=center;verticalAlign=middle;whiteSpace=wrap;rounded=0;" vertex="1" parent="1">
          <mxGeometry x="203" y="41" width="60" height="30" as="geometry" />
        </mxCell>
        <mxCell id="4P7MWwu41EraKO95r6xE-24" value="Stack B" style="text;html=1;align=center;verticalAlign=middle;whiteSpace=wrap;rounded=0;" vertex="1" parent="1">
          <mxGeometry x="263" y="40" width="60" height="30" as="geometry" />
        </mxCell>
        <mxCell id="4P7MWwu41EraKO95r6xE-25" value="&lt;span style=&quot;background-color: transparent; color: light-dark(rgb(0, 0, 0), rgb(255, 255, 255));&quot;&gt;2&lt;/span&gt;&lt;div&gt;5&lt;/div&gt;&lt;div&gt;1&lt;/div&gt;&lt;div&gt;4&lt;/div&gt;&lt;div&gt;&lt;br&gt;&lt;/div&gt;" style="text;html=1;align=center;verticalAlign=middle;whiteSpace=wrap;rounded=0;" vertex="1" parent="1">
          <mxGeometry x="212" y="83" width="30" height="76" as="geometry" />
        </mxCell>
        <mxCell id="4P7MWwu41EraKO95r6xE-26" value="" style="rounded=0;whiteSpace=wrap;html=1;" vertex="1" parent="1">
          <mxGeometry x="273" y="71" width="30" height="90" as="geometry" />
        </mxCell>
        <mxCell id="4P7MWwu41EraKO95r6xE-29" value="3" style="text;html=1;align=center;verticalAlign=middle;whiteSpace=wrap;rounded=0;" vertex="1" parent="1">
          <mxGeometry x="278" y="101" width="20" height="30" as="geometry" />
        </mxCell>
        <mxCell id="4P7MWwu41EraKO95r6xE-30" value="" style="endArrow=classic;html=1;rounded=0;" edge="1" parent="1">
          <mxGeometry width="50" height="50" relative="1" as="geometry">
            <mxPoint x="95" y="85" as="sourcePoint" />
            <mxPoint x="150" y="110" as="targetPoint" />
          </mxGeometry>
        </mxCell>
        <mxCell id="4P7MWwu41EraKO95r6xE-38" value="" style="endArrow=classic;html=1;rounded=0;entryX=1;entryY=0.75;entryDx=0;entryDy=0;" edge="1" parent="1" target="4P7MWwu41EraKO95r6xE-39">
          <mxGeometry width="50" height="50" relative="1" as="geometry">
            <mxPoint x="237" y="95" as="sourcePoint" />
            <mxPoint x="294.19999999999993" y="104.20999999999998" as="targetPoint" />
          </mxGeometry>
        </mxCell>
        <mxCell id="4P7MWwu41EraKO95r6xE-39" value="pb" style="text;html=1;align=center;verticalAlign=middle;whiteSpace=wrap;rounded=0;rotation=15;" vertex="1" parent="1">
          <mxGeometry x="230" y="72" width="60" height="30" as="geometry" />
        </mxCell>
        <mxCell id="4P7MWwu41EraKO95r6xE-55" value="" style="rounded=0;whiteSpace=wrap;html=1;" vertex="1" parent="1">
          <mxGeometry x="354" y="72" width="30" height="90" as="geometry" />
        </mxCell>
        <mxCell id="4P7MWwu41EraKO95r6xE-56" value="Stack A" style="text;html=1;align=center;verticalAlign=middle;whiteSpace=wrap;rounded=0;" vertex="1" parent="1">
          <mxGeometry x="345" y="42" width="60" height="30" as="geometry" />
        </mxCell>
        <mxCell id="4P7MWwu41EraKO95r6xE-57" value="Stack B" style="text;html=1;align=center;verticalAlign=middle;whiteSpace=wrap;rounded=0;" vertex="1" parent="1">
          <mxGeometry x="403" y="41" width="60" height="30" as="geometry" />
        </mxCell>
        <mxCell id="4P7MWwu41EraKO95r6xE-58" value="&lt;span style=&quot;background-color: transparent; color: light-dark(rgb(0, 0, 0), rgb(255, 255, 255));&quot;&gt;5&lt;/span&gt;&lt;div&gt;1&lt;/div&gt;&lt;div&gt;4&lt;/div&gt;&lt;div&gt;&lt;br&gt;&lt;/div&gt;" style="text;html=1;align=center;verticalAlign=middle;whiteSpace=wrap;rounded=0;" vertex="1" parent="1">
          <mxGeometry x="355" y="84" width="30" height="76" as="geometry" />
        </mxCell>
        <mxCell id="4P7MWwu41EraKO95r6xE-59" value="" style="rounded=0;whiteSpace=wrap;html=1;" vertex="1" parent="1">
          <mxGeometry x="413" y="72" width="30" height="90" as="geometry" />
        </mxCell>
        <mxCell id="4P7MWwu41EraKO95r6xE-61" value="2&lt;div&gt;3&lt;/div&gt;" style="text;html=1;align=center;verticalAlign=middle;whiteSpace=wrap;rounded=0;" vertex="1" parent="1">
          <mxGeometry x="418" y="102" width="20" height="30" as="geometry" />
        </mxCell>
        <mxCell id="4P7MWwu41EraKO95r6xE-74" value="" style="curved=1;endArrow=classic;html=1;rounded=0;" edge="1" parent="1">
          <mxGeometry width="50" height="50" relative="1" as="geometry">
            <mxPoint x="375" y="101" as="sourcePoint" />
            <mxPoint x="375" y="141" as="targetPoint" />
            <Array as="points">
              <mxPoint x="400" y="121" />
            </Array>
          </mxGeometry>
        </mxCell>
        <mxCell id="4P7MWwu41EraKO95r6xE-75" value="ra" style="text;html=1;align=center;verticalAlign=middle;whiteSpace=wrap;rounded=0;" vertex="1" parent="1">
          <mxGeometry x="369" y="105" width="60" height="30" as="geometry" />
        </mxCell>
        <mxCell id="4P7MWwu41EraKO95r6xE-76" value="" style="rounded=0;whiteSpace=wrap;html=1;" vertex="1" parent="1">
          <mxGeometry x="495" y="73" width="30" height="90" as="geometry" />
        </mxCell>
        <mxCell id="4P7MWwu41EraKO95r6xE-77" value="Stack A" style="text;html=1;align=center;verticalAlign=middle;whiteSpace=wrap;rounded=0;" vertex="1" parent="1">
          <mxGeometry x="486" y="43" width="60" height="30" as="geometry" />
        </mxCell>
        <mxCell id="4P7MWwu41EraKO95r6xE-78" value="Stack B" style="text;html=1;align=center;verticalAlign=middle;whiteSpace=wrap;rounded=0;" vertex="1" parent="1">
          <mxGeometry x="543" y="42" width="60" height="30" as="geometry" />
        </mxCell>
        <mxCell id="4P7MWwu41EraKO95r6xE-79" value="&lt;span style=&quot;background-color: transparent; color: light-dark(rgb(0, 0, 0), rgb(255, 255, 255));&quot;&gt;1&lt;/span&gt;&lt;div data-l-s=&quot;14385&quot;&gt;4&lt;/div&gt;&lt;div&gt;5&lt;/div&gt;" style="text;html=1;align=center;verticalAlign=middle;whiteSpace=wrap;rounded=0;" vertex="1" parent="1">
          <mxGeometry x="496" y="78" width="30" height="76" as="geometry" />
        </mxCell>
        <mxCell id="4P7MWwu41EraKO95r6xE-80" value="" style="rounded=0;whiteSpace=wrap;html=1;" vertex="1" parent="1">
          <mxGeometry x="553" y="73" width="30" height="90" as="geometry" />
        </mxCell>
        <mxCell id="4P7MWwu41EraKO95r6xE-81" value="" style="shape=flexArrow;endArrow=classic;html=1;rounded=0;fillColor=#1ba1e2;strokeColor=#006EAF;" edge="1" parent="1">
          <mxGeometry width="50" height="50" relative="1" as="geometry">
            <mxPoint x="679.5" y="173" as="sourcePoint" />
            <mxPoint x="680.5" y="213" as="targetPoint" />
          </mxGeometry>
        </mxCell>
        <mxCell id="4P7MWwu41EraKO95r6xE-82" value="2&lt;div&gt;3&lt;/div&gt;" style="text;html=1;align=center;verticalAlign=middle;whiteSpace=wrap;rounded=0;" vertex="1" parent="1">
          <mxGeometry x="558" y="103" width="20" height="30" as="geometry" />
        </mxCell>
        <mxCell id="4P7MWwu41EraKO95r6xE-83" value="" style="curved=1;endArrow=classic;html=1;rounded=0;" edge="1" parent="1">
          <mxGeometry width="50" height="50" relative="1" as="geometry">
            <mxPoint x="516" y="102" as="sourcePoint" />
            <mxPoint x="516" y="142" as="targetPoint" />
            <Array as="points">
              <mxPoint x="540" y="120" />
            </Array>
          </mxGeometry>
        </mxCell>
        <mxCell id="4P7MWwu41EraKO95r6xE-84" value="ra" style="text;html=1;align=center;verticalAlign=middle;whiteSpace=wrap;rounded=0;" vertex="1" parent="1">
          <mxGeometry x="509" y="106" width="60" height="30" as="geometry" />
        </mxCell>
        <mxCell id="4P7MWwu41EraKO95r6xE-85" value="" style="rounded=0;whiteSpace=wrap;html=1;" vertex="1" parent="1">
          <mxGeometry x="634" y="74" width="30" height="90" as="geometry" />
        </mxCell>
        <mxCell id="4P7MWwu41EraKO95r6xE-86" value="Stack A" style="text;html=1;align=center;verticalAlign=middle;whiteSpace=wrap;rounded=0;" vertex="1" parent="1">
          <mxGeometry x="625" y="44" width="60" height="30" as="geometry" />
        </mxCell>
        <mxCell id="4P7MWwu41EraKO95r6xE-87" value="Stack B" style="text;html=1;align=center;verticalAlign=middle;whiteSpace=wrap;rounded=0;" vertex="1" parent="1">
          <mxGeometry x="683" y="43" width="60" height="30" as="geometry" />
        </mxCell>
        <mxCell id="4P7MWwu41EraKO95r6xE-88" value="4&lt;div&gt;5&lt;/div&gt;&lt;div&gt;1&lt;br&gt;&lt;div&gt;&lt;br&gt;&lt;/div&gt;&lt;/div&gt;" style="text;html=1;align=center;verticalAlign=middle;whiteSpace=wrap;rounded=0;" vertex="1" parent="1">
          <mxGeometry x="635" y="86" width="30" height="76" as="geometry" />
        </mxCell>
        <mxCell id="4P7MWwu41EraKO95r6xE-89" value="" style="rounded=0;whiteSpace=wrap;html=1;" vertex="1" parent="1">
          <mxGeometry x="695" y="74" width="30" height="90" as="geometry" />
        </mxCell>
        <mxCell id="4P7MWwu41EraKO95r6xE-91" value="2&lt;div&gt;3&lt;/div&gt;" style="text;html=1;align=center;verticalAlign=middle;whiteSpace=wrap;rounded=0;" vertex="1" parent="1">
          <mxGeometry x="700" y="104" width="20" height="30" as="geometry" />
        </mxCell>
        <mxCell id="4P7MWwu41EraKO95r6xE-94" value="" style="endArrow=classic;html=1;rounded=0;exitX=0.103;exitY=0.158;exitDx=0;exitDy=0;exitPerimeter=0;" edge="1" parent="1" source="4P7MWwu41EraKO95r6xE-91">
          <mxGeometry width="50" height="50" relative="1" as="geometry">
            <mxPoint x="713" y="112" as="sourcePoint" />
            <mxPoint x="651" y="91" as="targetPoint" />
          </mxGeometry>
        </mxCell>
        <mxCell id="4P7MWwu41EraKO95r6xE-95" value="pa" style="text;html=1;align=center;verticalAlign=middle;whiteSpace=wrap;rounded=0;rotation=15;" vertex="1" parent="1">
          <mxGeometry x="651" y="74" width="60" height="30" as="geometry" />
        </mxCell>
        <mxCell id="4P7MWwu41EraKO95r6xE-96" value="" style="rounded=0;whiteSpace=wrap;html=1;" vertex="1" parent="1">
          <mxGeometry x="633" y="251" width="30" height="90" as="geometry" />
        </mxCell>
        <mxCell id="4P7MWwu41EraKO95r6xE-97" value="Stack A" style="text;html=1;align=center;verticalAlign=middle;whiteSpace=wrap;rounded=0;" vertex="1" parent="1">
          <mxGeometry x="624" y="221" width="60" height="30" as="geometry" />
        </mxCell>
        <mxCell id="4P7MWwu41EraKO95r6xE-98" value="Stack B" style="text;html=1;align=center;verticalAlign=middle;whiteSpace=wrap;rounded=0;" vertex="1" parent="1">
          <mxGeometry x="682" y="220" width="60" height="30" as="geometry" />
        </mxCell>
        <mxCell id="4P7MWwu41EraKO95r6xE-99" value="&lt;span style=&quot;background-color: transparent; color: light-dark(rgb(0, 0, 0), rgb(255, 255, 255));&quot;&gt;2&lt;/span&gt;&lt;div&gt;4&lt;/div&gt;&lt;div&gt;5&lt;/div&gt;&lt;div&gt;1&lt;br&gt;&lt;div&gt;&lt;br&gt;&lt;/div&gt;&lt;/div&gt;" style="text;html=1;align=center;verticalAlign=middle;whiteSpace=wrap;rounded=0;" vertex="1" parent="1">
          <mxGeometry x="634" y="263" width="30" height="76" as="geometry" />
        </mxCell>
        <mxCell id="4P7MWwu41EraKO95r6xE-100" value="" style="rounded=0;whiteSpace=wrap;html=1;" vertex="1" parent="1">
          <mxGeometry x="695" y="251" width="30" height="90" as="geometry" />
        </mxCell>
        <mxCell id="4P7MWwu41EraKO95r6xE-102" value="&lt;div&gt;3&lt;/div&gt;" style="text;html=1;align=center;verticalAlign=middle;whiteSpace=wrap;rounded=0;" vertex="1" parent="1">
          <mxGeometry x="700" y="281" width="20" height="30" as="geometry" />
        </mxCell>
        <mxCell id="4P7MWwu41EraKO95r6xE-103" value="" style="curved=1;endArrow=classic;html=1;rounded=0;entryX=0.533;entryY=0.908;entryDx=0;entryDy=0;entryPerimeter=0;" edge="1" parent="1">
          <mxGeometry width="50" height="50" relative="1" as="geometry">
            <mxPoint x="656" y="271" as="sourcePoint" />
            <mxPoint x="652.9900000000001" y="329.008" as="targetPoint" />
            <Array as="points">
              <mxPoint x="680" y="291" />
            </Array>
          </mxGeometry>
        </mxCell>
        <mxCell id="4P7MWwu41EraKO95r6xE-104" value="ra" style="text;html=1;align=center;verticalAlign=middle;whiteSpace=wrap;rounded=0;" vertex="1" parent="1">
          <mxGeometry x="649" y="279" width="60" height="30" as="geometry" />
        </mxCell>
        <mxCell id="4P7MWwu41EraKO95r6xE-105" value="" style="rounded=0;whiteSpace=wrap;html=1;" vertex="1" parent="1">
          <mxGeometry x="494" y="256" width="30" height="90" as="geometry" />
        </mxCell>
        <mxCell id="4P7MWwu41EraKO95r6xE-106" value="Stack A" style="text;html=1;align=center;verticalAlign=middle;whiteSpace=wrap;rounded=0;" vertex="1" parent="1">
          <mxGeometry x="483" y="226" width="60" height="30" as="geometry" />
        </mxCell>
        <mxCell id="4P7MWwu41EraKO95r6xE-107" value="Stack B" style="text;html=1;align=center;verticalAlign=middle;whiteSpace=wrap;rounded=0;" vertex="1" parent="1">
          <mxGeometry x="544" y="225" width="60" height="30" as="geometry" />
        </mxCell>
        <mxCell id="4P7MWwu41EraKO95r6xE-108" value="&lt;div&gt;&lt;div&gt;4&lt;/div&gt;&lt;/div&gt;&lt;div&gt;5&lt;/div&gt;&lt;div&gt;1&lt;/div&gt;&lt;div&gt;2&lt;/div&gt;" style="text;html=1;align=center;verticalAlign=middle;whiteSpace=wrap;rounded=0;" vertex="1" parent="1">
          <mxGeometry x="495" y="268" width="30" height="76" as="geometry" />
        </mxCell>
        <mxCell id="4P7MWwu41EraKO95r6xE-109" value="" style="rounded=0;whiteSpace=wrap;html=1;" vertex="1" parent="1">
          <mxGeometry x="554" y="256" width="30" height="90" as="geometry" />
        </mxCell>
        <mxCell id="4P7MWwu41EraKO95r6xE-110" value="3" style="text;html=1;align=center;verticalAlign=middle;whiteSpace=wrap;rounded=0;" vertex="1" parent="1">
          <mxGeometry x="559" y="286" width="20" height="30" as="geometry" />
        </mxCell>
        <mxCell id="4P7MWwu41EraKO95r6xE-111" value="" style="endArrow=classic;html=1;rounded=0;exitX=0;exitY=0.5;exitDx=0;exitDy=0;entryX=0.5;entryY=0;entryDx=0;entryDy=0;" edge="1" parent="1" source="4P7MWwu41EraKO95r6xE-110" target="4P7MWwu41EraKO95r6xE-108">
          <mxGeometry width="50" height="50" relative="1" as="geometry">
            <mxPoint x="563" y="294" as="sourcePoint" />
            <mxPoint x="520" y="280" as="targetPoint" />
          </mxGeometry>
        </mxCell>
        <mxCell id="4P7MWwu41EraKO95r6xE-112" value="pa" style="text;html=1;align=center;verticalAlign=middle;whiteSpace=wrap;rounded=0;rotation=30;" vertex="1" parent="1">
          <mxGeometry x="512" y="259" width="60" height="30" as="geometry" />
        </mxCell>
        <mxCell id="4P7MWwu41EraKO95r6xE-114" value="" style="shape=flexArrow;endArrow=classic;html=1;rounded=0;fillColor=#1ba1e2;strokeColor=#006EAF;" edge="1" parent="1">
          <mxGeometry width="50" height="50" relative="1" as="geometry">
            <mxPoint x="627" y="292" as="sourcePoint" />
            <mxPoint x="590" y="292" as="targetPoint" />
          </mxGeometry>
        </mxCell>
        <mxCell id="4P7MWwu41EraKO95r6xE-115" value="" style="rounded=0;whiteSpace=wrap;html=1;" vertex="1" parent="1">
          <mxGeometry x="355" y="254" width="30" height="90" as="geometry" />
        </mxCell>
        <mxCell id="4P7MWwu41EraKO95r6xE-116" value="Stack A" style="text;html=1;align=center;verticalAlign=middle;whiteSpace=wrap;rounded=0;" vertex="1" parent="1">
          <mxGeometry x="346" y="224" width="60" height="30" as="geometry" />
        </mxCell>
        <mxCell id="4P7MWwu41EraKO95r6xE-117" value="Stack B" style="text;html=1;align=center;verticalAlign=middle;whiteSpace=wrap;rounded=0;" vertex="1" parent="1">
          <mxGeometry x="405" y="223" width="60" height="30" as="geometry" />
        </mxCell>
        <mxCell id="4P7MWwu41EraKO95r6xE-118" value="&lt;div&gt;&lt;div&gt;3&lt;/div&gt;&lt;/div&gt;&lt;div&gt;4&lt;/div&gt;&lt;div&gt;5&lt;/div&gt;&lt;div&gt;1&lt;/div&gt;&lt;div&gt;2&lt;/div&gt;" style="text;html=1;align=center;verticalAlign=middle;whiteSpace=wrap;rounded=0;" vertex="1" parent="1">
          <mxGeometry x="354" y="264" width="30" height="76" as="geometry" />
        </mxCell>
        <mxCell id="4P7MWwu41EraKO95r6xE-119" value="" style="rounded=0;whiteSpace=wrap;html=1;" vertex="1" parent="1">
          <mxGeometry x="415" y="254" width="30" height="90" as="geometry" />
        </mxCell>
        <mxCell id="4P7MWwu41EraKO95r6xE-124" value="" style="curved=1;endArrow=classic;html=1;rounded=0;" edge="1" parent="1">
          <mxGeometry width="50" height="50" relative="1" as="geometry">
            <mxPoint x="376" y="332" as="sourcePoint" />
            <mxPoint x="376" y="262" as="targetPoint" />
            <Array as="points">
              <mxPoint x="400" y="292" />
            </Array>
          </mxGeometry>
        </mxCell>
        <mxCell id="4P7MWwu41EraKO95r6xE-125" value="rra" style="text;html=1;align=center;verticalAlign=middle;whiteSpace=wrap;rounded=0;" vertex="1" parent="1">
          <mxGeometry x="373" y="281" width="60" height="30" as="geometry" />
        </mxCell>
        <mxCell id="4P7MWwu41EraKO95r6xE-126" value="" style="rounded=0;whiteSpace=wrap;html=1;" vertex="1" parent="1">
          <mxGeometry x="213.5" y="255" width="30" height="90" as="geometry" />
        </mxCell>
        <mxCell id="4P7MWwu41EraKO95r6xE-127" value="Stack A" style="text;html=1;align=center;verticalAlign=middle;whiteSpace=wrap;rounded=0;" vertex="1" parent="1">
          <mxGeometry x="204.5" y="225" width="60" height="30" as="geometry" />
        </mxCell>
        <mxCell id="4P7MWwu41EraKO95r6xE-128" value="Stack B" style="text;html=1;align=center;verticalAlign=middle;whiteSpace=wrap;rounded=0;" vertex="1" parent="1">
          <mxGeometry x="263.5" y="224" width="60" height="30" as="geometry" />
        </mxCell>
        <mxCell id="4P7MWwu41EraKO95r6xE-129" value="&lt;div&gt;&lt;div data-l-s=&quot;68805&quot;&gt;2&lt;/div&gt;&lt;div data-l-s=&quot;68805&quot;&gt;3&lt;/div&gt;&lt;/div&gt;&lt;div&gt;4&lt;/div&gt;&lt;div&gt;5&lt;/div&gt;&lt;div&gt;1&lt;/div&gt;" style="text;html=1;align=center;verticalAlign=middle;whiteSpace=wrap;rounded=0;" vertex="1" parent="1">
          <mxGeometry x="212.5" y="265" width="30" height="76" as="geometry" />
        </mxCell>
        <mxCell id="4P7MWwu41EraKO95r6xE-130" value="" style="rounded=0;whiteSpace=wrap;html=1;" vertex="1" parent="1">
          <mxGeometry x="273.5" y="255" width="30" height="90" as="geometry" />
        </mxCell>
        <mxCell id="4P7MWwu41EraKO95r6xE-131" value="" style="curved=1;endArrow=classic;html=1;rounded=0;" edge="1" parent="1">
          <mxGeometry width="50" height="50" relative="1" as="geometry">
            <mxPoint x="234.5" y="333" as="sourcePoint" />
            <mxPoint x="234.5" y="263" as="targetPoint" />
            <Array as="points">
              <mxPoint x="258.5" y="293" />
            </Array>
          </mxGeometry>
        </mxCell>
        <mxCell id="4P7MWwu41EraKO95r6xE-132" value="rra" style="text;html=1;align=center;verticalAlign=middle;whiteSpace=wrap;rounded=0;" vertex="1" parent="1">
          <mxGeometry x="231.5" y="282" width="60" height="30" as="geometry" />
        </mxCell>
        <mxCell id="4P7MWwu41EraKO95r6xE-133" value="" style="rounded=0;whiteSpace=wrap;html=1;" vertex="1" parent="1">
          <mxGeometry x="74.5" y="258" width="30" height="90" as="geometry" />
        </mxCell>
        <mxCell id="4P7MWwu41EraKO95r6xE-134" value="Stack A" style="text;html=1;align=center;verticalAlign=middle;whiteSpace=wrap;rounded=0;" vertex="1" parent="1">
          <mxGeometry x="61.5" y="228" width="60" height="30" as="geometry" />
        </mxCell>
        <mxCell id="4P7MWwu41EraKO95r6xE-135" value="Stack B" style="text;html=1;align=center;verticalAlign=middle;whiteSpace=wrap;rounded=0;" vertex="1" parent="1">
          <mxGeometry x="124.5" y="226" width="60" height="30" as="geometry" />
        </mxCell>
        <mxCell id="4P7MWwu41EraKO95r6xE-136" value="1&lt;div&gt;2&lt;/div&gt;&lt;div&gt;3&lt;/div&gt;&lt;div&gt;4&lt;/div&gt;&lt;div&gt;5&lt;/div&gt;" style="text;html=1;align=center;verticalAlign=middle;whiteSpace=wrap;rounded=0;" vertex="1" parent="1">
          <mxGeometry x="74.5" y="266" width="30" height="76" as="geometry" />
        </mxCell>
        <mxCell id="4P7MWwu41EraKO95r6xE-137" value="" style="rounded=0;whiteSpace=wrap;html=1;" vertex="1" parent="1">
          <mxGeometry x="134.5" y="257" width="30" height="90" as="geometry" />
        </mxCell>
        <mxCell id="4P7MWwu41EraKO95r6xE-140" value="" style="shape=flexArrow;endArrow=classic;html=1;rounded=0;fillColor=#1ba1e2;strokeColor=#006EAF;" edge="1" parent="1">
          <mxGeometry width="50" height="50" relative="1" as="geometry">
            <mxPoint x="310" y="114.66" as="sourcePoint" />
            <mxPoint x="347" y="115.16" as="targetPoint" />
          </mxGeometry>
        </mxCell>
        <mxCell id="4P7MWwu41EraKO95r6xE-141" value="" style="shape=flexArrow;endArrow=classic;html=1;rounded=0;fillColor=#1ba1e2;strokeColor=#006EAF;" edge="1" parent="1">
          <mxGeometry width="50" height="50" relative="1" as="geometry">
            <mxPoint x="450" y="114.71000000000001" as="sourcePoint" />
            <mxPoint x="487" y="115.21000000000001" as="targetPoint" />
          </mxGeometry>
        </mxCell>
        <mxCell id="4P7MWwu41EraKO95r6xE-142" value="" style="shape=flexArrow;endArrow=classic;html=1;rounded=0;fillColor=#1ba1e2;strokeColor=#006EAF;" edge="1" parent="1">
          <mxGeometry width="50" height="50" relative="1" as="geometry">
            <mxPoint x="590" y="114.7" as="sourcePoint" />
            <mxPoint x="627" y="115.2" as="targetPoint" />
          </mxGeometry>
        </mxCell>
        <mxCell id="gs4yFWjzrgFgzxPDC7Ij-2" value="" style="shape=flexArrow;endArrow=classic;html=1;rounded=0;fillColor=#1ba1e2;strokeColor=#006EAF;" edge="1" parent="1">
          <mxGeometry width="50" height="50" relative="1" as="geometry">
            <mxPoint x="488" y="294" as="sourcePoint" />
            <mxPoint x="451" y="294" as="targetPoint" />
          </mxGeometry>
        </mxCell>
        <mxCell id="gs4yFWjzrgFgzxPDC7Ij-4" value="" style="shape=flexArrow;endArrow=classic;html=1;rounded=0;fillColor=#1ba1e2;strokeColor=#006EAF;" edge="1" parent="1">
          <mxGeometry width="50" height="50" relative="1" as="geometry">
            <mxPoint x="348.5" y="296.64" as="sourcePoint" />
            <mxPoint x="311.5" y="296.64" as="targetPoint" />
          </mxGeometry>
        </mxCell>
        <mxCell id="gs4yFWjzrgFgzxPDC7Ij-5" value="" style="shape=flexArrow;endArrow=classic;html=1;rounded=0;fillColor=#1ba1e2;strokeColor=#006EAF;" edge="1" parent="1">
          <mxGeometry width="50" height="50" relative="1" as="geometry">
            <mxPoint x="208" y="295.64" as="sourcePoint" />
            <mxPoint x="171" y="295.64" as="targetPoint" />
          </mxGeometry>
        </mxCell>
      </root>
    </mxGraphModel>
  </diagram>
</mxfile>
